<?xml version="1.0" encoding="UTF-8" standalone="no"?>
<svg
   width="24"
   height="24"
   viewBox="0 0 24 24"
   fill="none"
   stroke="currentColor"
   stroke-width="2"
   stroke-linecap="round"
   stroke-linejoin="round"
   version="1.1"
   id="svg11369"
   sodipodi:docname="align-center-vertical.svg"
   inkscape:version="1.2.2 (b0a8486541, 2022-12-01)"
   xmlns:inkscape="http://www.inkscape.org/namespaces/inkscape"
   xmlns:sodipodi="http://sodipodi.sourceforge.net/DTD/sodipodi-0.dtd"
   xmlns="http://www.w3.org/2000/svg"
   xmlns:svg="http://www.w3.org/2000/svg">
  <defs
     id="defs11373" />
  <sodipodi:namedview
     id="namedview11371"
     pagecolor="#505050"
     bordercolor="#ffffff"
     borderopacity="1"
     inkscape:showpageshadow="0"
     inkscape:pageopacity="0"
     inkscape:pagecheckerboard="1"
     inkscape:deskcolor="#505050"
     showgrid="false"
     inkscape:zoom="26.208333"
     inkscape:cx="12.019078"
     inkscape:cy="12.019078"
     inkscape:window-width="1920"
     inkscape:window-height="1011"
     inkscape:window-x="0"
     inkscape:window-y="0"
     inkscape:window-maximized="1"
     inkscape:current-layer="svg11369" />
  <path
     d="M12 2v20"
     id="path11359" />
  <path
     d="M8 10H4a2 2 0 0 1-2-2V6c0-1.1.9-2 2-2h4"
     id="path11361"
     style="fill:#000000" />
  <path
     d="M16 10h4a2 2 0 0 0 2-2V6a2 2 0 0 0-2-2h-4"
     id="path11363"
     style="fill:#000000" />
  <path
     d="M8 20H7a2 2 0 0 1-2-2v-2c0-1.1.9-2 2-2h1"
     id="path11365"
     style="fill:#000000" />
  <path
     d="M16 14h1a2 2 0 0 1 2 2v2a2 2 0 0 1-2 2h-1"
     id="path11367"
     style="fill:#000000" />
</svg>
