<?xml version="1.0" encoding="UTF-8" standalone="no"?>
<svg
   width="24"
   height="24"
   viewBox="0 0 24 24"
   fill="none"
   stroke="currentColor"
   stroke-width="2"
   stroke-linecap="round"
   stroke-linejoin="round"
   version="1.1"
   id="svg20213"
   sodipodi:docname="file-image.svg"
   inkscape:version="1.2.2 (b0a8486541, 2022-12-01)"
   xmlns:inkscape="http://www.inkscape.org/namespaces/inkscape"
   xmlns:sodipodi="http://sodipodi.sourceforge.net/DTD/sodipodi-0.dtd"
   xmlns="http://www.w3.org/2000/svg"
   xmlns:svg="http://www.w3.org/2000/svg">
  <defs
     id="defs20217" />
  <sodipodi:namedview
     id="namedview20215"
     pagecolor="#505050"
     bordercolor="#ffffff"
     borderopacity="1"
     inkscape:showpageshadow="0"
     inkscape:pageopacity="0"
     inkscape:pagecheckerboard="1"
     inkscape:deskcolor="#505050"
     showgrid="false"
     inkscape:zoom="26.208333"
     inkscape:cx="12.019078"
     inkscape:cy="12.019078"
     inkscape:window-width="1920"
     inkscape:window-height="1011"
     inkscape:window-x="0"
     inkscape:window-y="0"
     inkscape:window-maximized="1"
     inkscape:current-layer="svg20213" />
  <path
     d="M14.5 2H6a2 2 0 0 0-2 2v16a2 2 0 0 0 2 2h12a2 2 0 0 0 2-2V7.5L14.5 2z"
     id="path20205" />
  <polyline
     points="14 2 14 8 20 8"
     id="polyline20207"
     style="fill:#000000" />
  <circle
     cx="10"
     cy="13"
     r="2"
     id="circle20209"
     style="fill:#000000" />
  <path
     d="m20 17-1.09-1.09a2 2 0 0 0-2.82 0L10 22"
     id="path20211"
     style="fill:#000000" />
  <rect
     style="fill:#000000;stroke:#000000;stroke-width:0.01;stroke-linecap:round;stroke-linejoin:round"
     id="rect21127"
     width="8.1741352"
     height="1.4819654"
     x="11.489964"
     y="19.977842" />
  <rect
     style="fill:#000000;stroke:#000000;stroke-width:0.01;stroke-linecap:round;stroke-linejoin:round"
     id="rect21129"
     width="2.4509141"
     height="3.6453695"
     x="17.155058"
     y="17.37043" />
  <rect
     style="fill:#000000;stroke:#000000;stroke-width:0.01;stroke-linecap:round;stroke-linejoin:round"
     id="rect21131"
     width="2.4176769"
     height="1.9952803"
     x="15.278419"
     y="18.360542" />
  <rect
     style="fill:#000000;stroke:#000000;stroke-width:0.01;stroke-linecap:round;stroke-linejoin:round"
     id="rect21133"
     width="2.6843204"
     height="1.8188096"
     x="13.811506"
     y="18.847178" />
</svg>
