<?xml version="1.0" encoding="UTF-8" standalone="no"?>
<svg
   width="24"
   height="24"
   viewBox="0 0 24 24"
   fill="none"
   stroke="currentColor"
   stroke-width="2"
   stroke-linecap="round"
   stroke-linejoin="round"
   version="1.1"
   id="svg32108"
   sodipodi:docname="inbox.svg"
   inkscape:version="1.2.2 (b0a8486541, 2022-12-01)"
   xmlns:inkscape="http://www.inkscape.org/namespaces/inkscape"
   xmlns:sodipodi="http://sodipodi.sourceforge.net/DTD/sodipodi-0.dtd"
   xmlns="http://www.w3.org/2000/svg"
   xmlns:svg="http://www.w3.org/2000/svg">
  <defs
     id="defs32112" />
  <sodipodi:namedview
     id="namedview32110"
     pagecolor="#505050"
     bordercolor="#ffffff"
     borderopacity="1"
     inkscape:showpageshadow="0"
     inkscape:pageopacity="0"
     inkscape:pagecheckerboard="1"
     inkscape:deskcolor="#505050"
     showgrid="false"
     inkscape:zoom="26.208333"
     inkscape:cx="12.019078"
     inkscape:cy="12.019078"
     inkscape:window-width="1920"
     inkscape:window-height="1011"
     inkscape:window-x="0"
     inkscape:window-y="0"
     inkscape:window-maximized="1"
     inkscape:current-layer="svg32108" />
  <polyline
     points="22 12 16 12 14 15 10 15 8 12 2 12"
     id="polyline32104" />
  <path
     d="M5.45 5.11 2 12v6a2 2 0 0 0 2 2h16a2 2 0 0 0 2-2v-6l-3.45-6.89A2 2 0 0 0 16.76 4H7.24a2 2 0 0 0-1.79 1.11z"
     id="path32106" />
  <rect
     style="fill:#000000;stroke:#feffff;stroke-width:0;stroke-linecap:round;stroke-linejoin:round"
     id="rect32977"
     width="6.8307829"
     height="6.663404"
     x="2.3795211"
     y="12.745082" />
  <rect
     style="fill:#000000;stroke:#feffff;stroke-width:0;stroke-linecap:round;stroke-linejoin:round"
     id="rect32979"
     width="5.6747813"
     height="6.8507552"
     x="15.841067"
     y="12.637321" />
  <rect
     style="fill:#000000;stroke:#feffff;stroke-width:0;stroke-linecap:round;stroke-linejoin:round"
     id="rect32981"
     width="9.8236284"
     height="5.1705585"
     x="7.9302959"
     y="14.576262" />
  <rect
     style="fill:#000000;stroke:#feffff;stroke-width:0;stroke-linecap:round;stroke-linejoin:round"
     id="rect32983"
     width="1.7153716"
     height="1.710006"
     x="14.846781"
     y="13.502683" />
</svg>
