<?xml version="1.0" encoding="UTF-8" standalone="no"?>
<svg
   width="24"
   height="24"
   viewBox="0 0 24 24"
   fill="none"
   stroke="currentColor"
   stroke-width="2"
   stroke-linecap="round"
   stroke-linejoin="round"
   version="1.1"
   id="svg36546"
   sodipodi:docname="venetian-mask.svg"
   inkscape:version="1.2.2 (b0a8486541, 2022-12-01)"
   xmlns:inkscape="http://www.inkscape.org/namespaces/inkscape"
   xmlns:sodipodi="http://sodipodi.sourceforge.net/DTD/sodipodi-0.dtd"
   xmlns="http://www.w3.org/2000/svg"
   xmlns:svg="http://www.w3.org/2000/svg">
  <defs
     id="defs36550" />
  <sodipodi:namedview
     id="namedview36548"
     pagecolor="#505050"
     bordercolor="#ffffff"
     borderopacity="1"
     inkscape:showpageshadow="0"
     inkscape:pageopacity="0"
     inkscape:pagecheckerboard="1"
     inkscape:deskcolor="#505050"
     showgrid="false"
     inkscape:zoom="26.208333"
     inkscape:cx="12.019078"
     inkscape:cy="12.019078"
     inkscape:window-width="1920"
     inkscape:window-height="1011"
     inkscape:window-x="0"
     inkscape:window-y="0"
     inkscape:window-maximized="1"
     inkscape:current-layer="svg36546" />
  <path
     d="M2 12a5 5 0 0 0 5 5 8 8 0 0 1 5 2 8 8 0 0 1 5-2 5 5 0 0 0 5-5V7h-5a8 8 0 0 0-5 2 8 8 0 0 0-5-2H2Z"
     id="path36540"
     style="fill:#000000;opacity:1" />
  <path
     d="M6 11c1.5 0 3 .5 3 2-2 0-3 0-3-2Z"
     id="path36542"
     style="stroke:#ffffff;stroke-opacity:1" />
  <path
     d="M18 11c-1.5 0-3 .5-3 2 2 0 3 0 3-2Z"
     id="path36544"
     style="fill:#ffff00;fill-opacity:1;stroke:#ffffff;stroke-opacity:1" />
</svg>
